<?xml version="1.0" encoding="UTF-8" standalone="no"?>
<!-- Created with Inkscape (http://www.inkscape.org/) -->

<svg
   width="150mm"
   height="150.00002mm"
   viewBox="0 0 150 150.00002"
   version="1.1"
   id="svg1"
   sodipodi:docname="icecube.svg"
   inkscape:version="1.3.2 (091e20e, 2023-11-25, custom)"
   xmlns:inkscape="http://www.inkscape.org/namespaces/inkscape"
   xmlns:sodipodi="http://sodipodi.sourceforge.net/DTD/sodipodi-0.dtd"
   xmlns="http://www.w3.org/2000/svg"
   xmlns:svg="http://www.w3.org/2000/svg">
  <sodipodi:namedview
     id="namedview1"
     pagecolor="#ffffff"
     bordercolor="#000000"
     borderopacity="0.25"
     inkscape:showpageshadow="2"
     inkscape:pageopacity="0.0"
     inkscape:pagecheckerboard="0"
     inkscape:deskcolor="#d1d1d1"
     inkscape:document-units="mm"
     inkscape:zoom="1.0140205"
     inkscape:cx="219.91666"
     inkscape:cy="240.13321"
     inkscape:window-width="1920"
     inkscape:window-height="1009"
     inkscape:window-x="1912"
     inkscape:window-y="-8"
     inkscape:window-maximized="1"
     inkscape:current-layer="layer1" />
  <defs
     id="defs1" />
  <g
     id="layer1"
     transform="translate(-34.495922,-58.254211)">
    <path
       id="rect1"
       style="fill:#000000;stroke-width:0.261203"
       d="M 58.791597 67.908402 C 50.680334 67.908402 44.150113 74.438623 44.150113 82.549886 L 44.150113 183.95868 C 44.150113 192.06994 50.680334 198.60017 58.791597 198.60017 L 160.20039 198.60017 C 168.31167 198.60017 174.84188 192.06994 174.84188 183.95868 L 174.84188 82.549886 C 174.84188 74.438623 168.31167 67.908402 160.20039 67.908402 L 58.791597 67.908402 z M 79.730887 81.083825 A 11.391107 11.391107 0 0 1 91.121923 92.474861 A 11.391107 11.391107 0 0 1 79.730887 103.8659 A 11.391107 11.391107 0 0 1 71.708121 100.36327 A 6.8346643 6.8346643 0 0 1 64.989668 106.00995 A 6.8346643 6.8346643 0 0 1 58.154943 99.175227 A 6.8346643 6.8346643 0 0 1 64.989668 92.341019 A 6.8346643 6.8346643 0 0 1 68.469559 93.293933 A 11.391107 11.391107 0 0 1 68.339851 92.474861 A 11.391107 11.391107 0 0 1 79.730887 81.083825 z M 145.47674 106.04974 A 12.180655 12.180655 0 0 1 151.17666 106.91997 A 11.746101 11.746101 0 0 1 157.95505 117.463 L 158.32867 160.83348 A 22.97645 22.97645 0 0 1 153.33363 176.99632 A 15.147487 15.147487 0 0 1 142.3343 181.8694 L 94.77338 182.28127 A 14.317846 14.317846 0 0 1 83.374075 176.78806 L 83.005623 176.31677 A 22.669364 22.669364 0 0 1 78.188346 162.34553 L 78.188346 155.2271 A 18.1586 18.1586 0 0 1 82.272851 143.72135 A 26.618227 26.618227 0 0 1 96.035835 134.85212 L 121.934 127.96779 A 16.451575 16.451575 0 0 0 132.75142 118.72701 L 133.47851 117.08473 A 18.058596 18.058596 0 0 1 140.01558 107.89873 A 12.180655 12.180655 0 0 1 145.47674 106.04974 z " />
  </g>
</svg>
