<?xml version="1.0" encoding="UTF-8" standalone="no"?>
<!-- Uploaded to: SVG Repo, www.svgrepo.com, Generator: SVG Repo Mixer Tools -->

<svg
   width="800px"
   height="800px"
   viewBox="0 0 24 24"
   fill="none"
   version="1.1"
   id="svg2"
   sodipodi:docname="star.svg"
   inkscape:version="1.3.2 (091e20e, 2023-11-25, custom)"
   xmlns:inkscape="http://www.inkscape.org/namespaces/inkscape"
   xmlns:sodipodi="http://sodipodi.sourceforge.net/DTD/sodipodi-0.dtd"
   xmlns="http://www.w3.org/2000/svg"
   xmlns:svg="http://www.w3.org/2000/svg">
  <defs
     id="defs2" />
  <sodipodi:namedview
     id="namedview2"
     pagecolor="#ffffff"
     bordercolor="#000000"
     borderopacity="0.25"
     inkscape:showpageshadow="2"
     inkscape:pageopacity="0.0"
     inkscape:pagecheckerboard="0"
     inkscape:deskcolor="#d1d1d1"
     inkscape:zoom="1.01625"
     inkscape:cx="400.492"
     inkscape:cy="400"
     inkscape:window-width="1920"
     inkscape:window-height="1009"
     inkscape:window-x="-8"
     inkscape:window-y="-8"
     inkscape:window-maximized="1"
     inkscape:current-layer="svg2" />
  <path
     id="path2"
     style="opacity:1;fill:#000000;fill-opacity:1;stroke-width:0.99999;stroke-dasharray:none"
     d="M 9.15302,5.40838 8.82532,5.99623 C 8.46538,6.64194 8.28541,6.96479 8.0048,7.17781 8.04418,7.14791 8.08158,7.11586 8.11777,7.08105 8.04022,7.54249 7.99986,8.01653 7.99986,8.50001 7.99986,13.1944 11.8054,17 16.4999,17 c 0.6829,0 1.347,-0.0805 1.9834,-0.2326 l -0.0184,-0.1898 c -0.0721,-0.7435 -0.1081,-1.1152 -9e-4,-1.4599 0.1072,-0.3447 0.3454,-0.6233 0.8219,-1.1805 l 0.4339,-0.5073 C 21.3966,11.4691 22.235,10.4886 21.9424,9.54773 21.6498,8.60682 20.42,8.32856 17.9603,7.77203 L 17.324,7.62805 C 16.625,7.4699 16.2755,7.39083 15.9949,7.17781 15.7143,6.96479 15.5343,6.64194 15.1744,5.99624 L 14.8467,5.40837 C 13.58,3.13612 12.9467,2 11.9999,2 11.053,2 10.4197,3.13613 9.15302,5.40838 Z M 18.4834,16.7674 C 17.8471,16.9195 17.1829,17 16.5,17 11.8056,17 8,13.1944 8,8.50001 8,8.01653 8.04036,7.54249 8.11791,7.08105 8.08172,7.11586 8.04432,7.14792 8.00494,7.17781 7.72433,7.39083 7.37485,7.46991 6.67589,7.62806 L 6.03954,7.77204 C 3.57986,8.32856 2.35002,8.60682 2.05742,9.54774 1.76482,10.4887 2.60325,11.4691 4.2801,13.4299 l 0.43382,0.5073 c 0.4765,0.5572 0.71476,0.8358 0.82194,1.1805 0.10719,0.3447 0.07117,0.7164 -8.8e-4,1.4599 L 5.4694,17.2544 c -0.25352,2.6162 -0.38028,3.9243 0.38575,4.5058 0.76602,0.5815 1.91752,0.0514 4.22055,-1.009 l 0.5958,-0.2744 c 0.6544,-0.3013 0.9816,-0.4519 1.3285,-0.4519 0.3469,0 0.6741,0.1506 1.3285,0.4519 l 0.5958,0.2744 c 2.303,1.0604 3.4545,1.5905 4.2206,1.009 0.766,-0.5815 0.6392,-1.8896 0.3857,-4.5058 z"
     inkscape:label="path2" />
</svg>
